{
  "source": "C:\\Users\\Peter\\Desktop\\stuff\\MIUN\\quantitative_research\\video_compression\\videos\\BVI-HD\\RockWater_1920x1080_30fps.mp4",
  "output": "C:\\Users\\Peter\\Desktop\\stuff\\MIUN\\quantitative_research\\video_compression\\compressed_videos\\BVI-HD\\h264\\1.5\\RockWater_1920x1080_30fps_h264.mp4",
  "codec": "h264",
  "ok": "Input #0, mov,mp4,m4a,3gp,3g2,mj2, from 'C:\\Users\\Peter\\Desktop\\stuff\\MIUN\\quantitative_research\\video_compression\\videos\\BVI-HD\\RockWater_1920x1080_30fps.mp4':\n  Metadata:\n    major_brand     : isom\n    minor_version   : 512\n    compatible_brands: isomiso2avc1mp41\n    encoder         : Lavf54.28.101\n  Duration: 00:00:05.00, start: 0.000000, bitrate: 245943 kb/s\n  Stream #0:0[0x1](und): Video: h264 (High 4:4:4 Predictive) (avc1 / 0x31637661), yuv420p(progressive), 1920x1080, 245940 kb/s, 30 fps, 30 tbr, 30 tbn (default)\n    Metadata:\n      handler_name    : VideoHandler\n      vendor_id       : [0][0][0][0]\n[out#0/mp4 @ 000002015bc81440] Codec AVOption b:a (set bitrate (in bits/s)) has not been used for any stream. The most likely reason is either wrong type (e.g. a video option with no video streams) or that it is a private option of some decoder which was not actually used for any stream.\nStream mapping:\n  Stream #0:0 -> #0:0 (h264 (native) -> h264 (libx264))\nPress [q] to stop, [?] for help\n[libx264 @ 000002015c5847c0] using cpu capabilities: MMX2 SSE2Fast SSSE3 SSE4.2 AVX FMA3 BMI2 AVX2\n[libx264 @ 000002015c5847c0] profile High, level 5.0, 4:2:0, 8-bit\n[libx264 @ 000002015c5847c0] 264 - core 165 r3222 b35605a - H.264/MPEG-4 AVC codec - Copyleft 2003-2025 - http://www.videolan.org/x264.html - options: cabac=1 ref=5 deblock=1:0:0 analyse=0x3:0x113 me=hex subme=8 psy=1 psy_rd=1.00:0.00 mixed_ref=1 me_range=16 chroma_me=1 trellis=2 8x8dct=1 cqm=0 deadzone=21,11 fast_pskip=1 chroma_qp_offset=-2 threads=18 lookahead_threads=3 sliced_threads=0 nr=0 decimate=1 interlaced=0 bluray_compat=0 constrained_intra=0 bframes=3 b_pyramid=2 b_adapt=1 b_bias=0 direct=3 weightb=1 open_gop=0 weightp=2 keyint=250 keyint_min=25 scenecut=40 intra_refresh=0 rc_lookahead=50 rc=cbr mbtree=1 bitrate=1500 ratetol=1.0 qcomp=0.60 qpmin=0 qpmax=69 qpstep=4 vbv_maxrate=1500 vbv_bufsize=1500 nal_hrd=none filler=0 ip_ratio=1.40 aq=1:1.00\nOutput #0, mp4, to 'C:\\Users\\Peter\\Desktop\\stuff\\MIUN\\quantitative_research\\video_compression\\compressed_videos\\BVI-HD\\h264\\1.5\\RockWater_1920x1080_30fps_h264.mp4':\n  Metadata:\n    major_brand     : isom\n    minor_version   : 512\n    compatible_brands: isomiso2avc1mp41\n    encoder         : Lavf62.3.100\n  Stream #0:0(und): Video: h264 (avc1 / 0x31637661), yuv420p(tv, progressive), 1920x1080, q=2-31, 1500 kb/s, 30 fps, 15360 tbn (default)\n    Metadata:\n      encoder         : Lavc62.11.100 libx264\n      handler_name    : VideoHandler\n      vendor_id       : [0][0][0][0]\n    Side data:\n      cpb: bitrate max/min/avg: 1500000/0/1500000 buffer size: 1500000 vbv_delay: N/A\nframe=    0 fps=0.0 q=0.0 size=       0KiB time=N/A bitrate=N/A speed=N/A elapsed=0:00:00.51    \nframe=    0 fps=0.0 q=0.0 size=       0KiB time=N/A bitrate=N/A speed=N/A elapsed=0:00:01.03    \nframe=   10 fps=6.3 q=46.0 size=       0KiB time=00:00:00.26 bitrate=   1.4kbits/s speed=0.169x elapsed=0:00:01.57    \nframe=   32 fps= 15 q=44.0 size=       0KiB time=00:00:01.00 bitrate=   0.4kbits/s speed=0.467x elapsed=0:00:02.14    \nframe=   54 fps= 20 q=45.0 size=     256KiB time=00:00:01.66 bitrate=1258.5kbits/s speed=0.625x elapsed=0:00:02.66    \nframe=   93 fps= 29 q=44.0 size=     256KiB time=00:00:03.03 bitrate= 691.5kbits/s speed=0.946x elapsed=0:00:03.20    \nframe=  142 fps= 38 q=-1.0 size=     512KiB time=00:00:04.66 bitrate= 898.9kbits/s speed=1.25x elapsed=0:00:03.71    \n[mp4 @ 000002015bc81580] Starting second pass: moving the moov atom to the beginning of the file\n[out#0/mp4 @ 000002015bc81440] video:800KiB audio:0KiB subtitle:0KiB other streams:0KiB global headers:0KiB muxing overhead: 0.322646%\nframe=  150 fps= 40 q=-1.0 Lsize=     803KiB time=00:00:04.93 bitrate=1332.7kbits/s speed=1.31x elapsed=0:00:03.75    \n[libx264 @ 000002015c5847c0] frame I:1     Avg QP:43.63  size: 21543\n[libx264 @ 000002015c5847c0] frame P:40    Avg QP:44.09  size:  8319\n[libx264 @ 000002015c5847c0] frame B:109   Avg QP:48.20  size:  4258\n[libx264 @ 000002015c5847c0] consecutive B-frames:  1.3%  4.0%  4.0% 90.7%\n[libx264 @ 000002015c5847c0] mb I  I16..4: 56.8% 41.6%  1.6%\n[libx264 @ 000002015c5847c0] mb P  I16..4: 17.9%  8.1%  0.1%  P16..4: 24.6%  1.1%  2.1%  0.0%  0.0%    skip:46.1%\n[libx264 @ 000002015c5847c0] mb B  I16..4:  1.1%  0.8%  0.0%  B16..8: 37.8%  1.0%  0.0%  direct: 0.3%  skip:59.0%  L0:51.5% L1:47.5% BI: 1.0%\n[libx264 @ 000002015c5847c0] 8x8 transform intra:33.2% inter:83.9%\n[libx264 @ 000002015c5847c0] direct mvs  spatial:91.7% temporal:8.3%\n[libx264 @ 000002015c5847c0] coded y,uvDC,uvAC intra: 5.4% 4.6% 0.0% inter: 1.8% 0.1% 0.0%\n[libx264 @ 000002015c5847c0] i16 v,h,dc,p: 18% 48%  7% 26%\n[libx264 @ 000002015c5847c0] i8 v,h,dc,ddl,ddr,vr,hd,vl,hu:  3% 11% 63%  4%  4%  2%  5%  3%  5%\n[libx264 @ 000002015c5847c0] i4 v,h,dc,ddl,ddr,vr,hd,vl,hu:  4%  7% 24% 10% 11%  5% 13%  7% 19%\n[libx264 @ 000002015c5847c0] i8c dc,h,v,p: 99%  1%  0%  0%\n[libx264 @ 000002015c5847c0] Weighted P-Frames: Y:10.0% UV:0.0%\n[libx264 @ 000002015c5847c0] ref P L0: 47.7%  2.6% 22.5% 13.0% 13.2%  1.0%\n[libx264 @ 000002015c5847c0] ref B L0: 59.3% 22.3% 13.7%  4.7%\n[libx264 @ 000002015c5847c0] ref B L1: 89.6% 10.4%\n[libx264 @ 000002015c5847c0] kb/s:1309.44\n",
  "seconds": 3.993271827697754,
  "probe_out": {}
}